<svg width="27" height="28" viewBox="0 0 27 28" fill="none" xmlns="http://www.w3.org/2000/svg">
<mask id="mask0" style="mask-type:alpha" maskUnits="userSpaceOnUse" x="1" y="0" width="25" height="21">
<rect x="1" y="7.44312" width="21.9096" height="14.6064" rx="2.21454" transform="rotate(-19.8594 1 7.44312)" fill="#FEEE00"/>
</mask>
<g mask="url(#mask0)">
<rect x="1" y="7.44312" width="21.9096" height="14.6064" transform="rotate(-19.8594 1 7.44312)" fill="#404553"/>
<rect x="3.20636" y="13.6487" width="21.8962" height="1.84232" transform="rotate(-20.1772 3.20636 13.6487)" fill="#585D6D"/>
</g>
<g filter="url(#filter0_d)">
<mask id="mask1" style="mask-type:alpha" maskUnits="userSpaceOnUse" x="2" y="10" width="20" height="14">
<path d="M2.11768 12.4495C2.11768 11.3609 3.0001 10.4785 4.08863 10.4785H19.8734C20.9619 10.4785 21.8443 11.3609 21.8443 12.4495V21.5074C21.8443 22.5959 20.9619 23.4783 19.8734 23.4783H4.08863C3.0001 23.4783 2.11768 22.5959 2.11768 21.5074V12.4495Z" fill="#FEEE00"/>
</mask>
<g mask="url(#mask1)">
<path d="M2.11768 10.4785L21.8443 10.4785V23.4783H2.11768V10.4785Z" fill="#F8E90F"/>
<path d="M15.8232 12.5558L14.9183 14.7097H14.3278L13.8775 12.9934C13.852 12.8872 13.8265 12.8489 13.7458 12.8022C13.6098 12.73 13.3889 12.662 13.1935 12.6195L13.2062 12.5558H14.1578C14.281 12.5558 14.3873 12.6365 14.417 12.7767L14.6549 14.0215L15.2369 12.5558H15.8232ZM18.1428 14.0087C18.147 13.4395 17.3568 13.4055 17.3611 13.1548C17.3611 13.0784 17.4375 12.9934 17.599 12.9764C17.6797 12.9679 17.9006 12.9594 18.1513 13.0741L18.249 12.611C18.113 12.5643 17.9388 12.5176 17.7264 12.5176C17.1741 12.5176 16.7833 12.8107 16.779 13.2313C16.7748 13.5414 17.0594 13.7156 17.2676 13.8176C17.4843 13.9238 17.5607 13.9917 17.5565 14.0852C17.5565 14.2296 17.3823 14.2934 17.2209 14.2976C16.9405 14.3019 16.7748 14.2211 16.6474 14.1617L16.5454 14.6332C16.6771 14.6927 16.9192 14.7437 17.1699 14.7479C17.7562 14.7437 18.1428 14.4548 18.1428 14.0087ZM19.6084 14.7097H20.1267L19.6721 12.5558H19.1963C19.0901 12.5558 18.9967 12.6195 18.9584 12.713L18.1173 14.7097H18.7035L18.8182 14.3868H19.5362L19.6084 14.7097ZM18.9797 13.9493L19.2728 13.1421L19.4427 13.9493H18.9797ZM16.6261 12.5558L16.163 14.7097H15.6023L16.0653 12.5558H16.6261Z" fill="black"/>
<path fill-rule="evenodd" clip-rule="evenodd" d="M12.2415 21.122C12.2415 19.7272 13.2928 18.6343 14.6355 18.6343C15.9783 18.6343 17.0296 19.7272 17.0296 21.122C17.0296 22.5168 15.9783 23.6097 14.6355 23.6097C13.2928 23.6097 12.2415 22.5168 12.2415 21.122ZM3.15823 19.2878C3.54337 18.9651 4.03259 18.7882 4.54262 18.7986C5.70843 18.7986 6.45787 19.6313 6.45787 20.922V23.6804H5.26084V21.0261C5.26084 20.3703 4.93816 19.9852 4.38649 19.9852C3.67868 19.9852 3.31437 20.5369 3.31437 21.0885V23.67H2.11734V18.9131H3.05414L3.15823 19.2878ZM15.8217 21.1221C15.8217 21.882 15.3221 22.4337 14.6455 22.4337C13.9689 22.4337 13.4589 21.882 13.4589 21.1221C13.4589 20.3623 13.9585 19.8106 14.6351 19.8106C15.3117 19.8106 15.8217 20.3623 15.8217 21.1221ZM6.95577 21.122C6.95577 19.7272 8.00707 18.6343 9.34982 18.6343C10.6926 18.6343 11.7439 19.7272 11.7439 21.122C11.7439 22.5168 10.6926 23.6097 9.34982 23.6097C8.00707 23.6097 6.95577 22.5168 6.95577 21.122ZM10.5261 21.1221C10.5261 21.882 10.0265 22.4337 9.34988 22.4337C8.6733 22.4337 8.17367 21.882 8.17367 21.1221C8.17367 20.3623 8.6733 19.8106 9.34988 19.8106C10.0265 19.8106 10.5261 20.3623 10.5261 21.1221ZM18.5691 19.2878C18.9543 18.9651 19.4435 18.7882 19.9535 18.7986C21.1089 18.7986 21.8584 19.6313 21.8688 20.922V23.6804H20.6718V21.0261C20.6718 20.3703 20.3387 19.9852 19.787 19.9852C19.0792 19.9852 18.7149 20.5369 18.7149 21.0885V23.67H17.5283V18.9131H18.4651L18.5691 19.2878Z" fill="black"/>
</g>
</g>
<defs>
<filter id="filter0_d" x="0.698587" y="9.05943" width="25.403" height="18.6761" filterUnits="userSpaceOnUse" color-interpolation-filters="sRGB">
<feFlood flood-opacity="0" result="BackgroundImageFix"/>
<feColorMatrix in="SourceAlpha" type="matrix" values="0 0 0 0 0 0 0 0 0 0 0 0 0 0 0 0 0 0 127 0" result="hardAlpha"/>
<feOffset dx="1.41909" dy="1.41909"/>
<feGaussianBlur stdDeviation="1.41909"/>
<feColorMatrix type="matrix" values="0 0 0 0 0 0 0 0 0 0 0 0 0 0 0 0 0 0 0.12 0"/>
<feBlend mode="normal" in2="BackgroundImageFix" result="effect1_dropShadow"/>
<feBlend mode="normal" in="SourceGraphic" in2="effect1_dropShadow" result="shape"/>
</filter>
</defs>
</svg>
